<svg xmlns="http://www.w3.org/2000/svg" xmlns:xlink="http://www.w3.org/1999/xlink" width="1620px" height="830px" viewBox="0 0  1620 830" preserveAspectRatio="xMidYMid meet" ><rect id="svgEditorBackground" x="0" y="0" width="1620" height="830" style="fill: none; stroke: none;"/><path d="M276,199c-9.977485294400026,110.76867692270002,289.24107968370004,289.3598623023,382,228s127.47589558590005,-136.4263335269,110,-188s-113.75928578160006,-89.8521265002,-160,-96s69.14983884920002,359.7016581492,168,358s147.1578021839,-162.38107769919998,194,-128s23.307298339600038,96.9086223932,50,112s137.437573295,-65.4109236644,152,-110s-41.518880681800056,-174.1101910146,-83,-194" stroke="olive" id="e44_curveS3" style="fill: none; stroke-width: 1.44px; stroke-dasharray: 4px, 4px;"/><circle id="e90_circle" cx="280" cy="199" stroke="black" style="stroke-width: 1px;" r="10" fill="khaki" /><circle id="e215_circle" cx="608" cy="145" stroke="black" style="stroke-width: 1px;" r="10" fill="khaki" /><circle id="e227_circle" cx="956" cy="371" stroke="black" style="stroke-width: 1px;" r="10" fill="khaki" /><path d="M1083,190l1,0l0,-1l0,-1l1,0l0,-1l0,-1l0,-1l1,0l0,-1l1,-1l0,-1l1,-1l0,-1l1,0l0,-1l1,0l0,-1l1,0l0,-1l1,0l0,-1l0,-1l1,0l0,-1l1,0l1,0l0,-1l1,0" stroke="olive" id="e299_freepath" style="fill: none; stroke-width: 4.87px;"/><path d="M1082,176l1,0l1,0l1,0l0,1l1,0l0,1l1,0l1,0l0,1l1,0l0,1l0,1l1,0l0,1l0,1l1,0l0,1l1,0l0,1l0,1l0,1l1,0l0,1l0,1l0,1l1,0l0,1l1,0" stroke="olive" id="e358_freepath" style="fill: none; stroke-width: 5.75px;"/></svg>